<svg width="467.38400000000007" height="467.38101" xmlns="http://www.w3.org/2000/svg">

 <g>
  <title>background</title>
  <rect fill="none" id="canvas_background" height="402" width="582" y="-1" x="-1"/>
 </g>
 <g>
  <title>Layer 1</title>
  <path clip-rule="evenodd" fill="#ffffff" fill-rule="evenodd" id="path8" d="m268.590363,249.81883c-3.025,-2.023 -6.385,-3.698 -9.419,-5.722c0.677,-6.051 0.677,-12.439 0,-18.829c3.368,-2.014 6.394,-3.693 9.419,-5.716c5.049,-3.025 7.396,-9.41 5.049,-15.132l0,0l-6.729,-16.138c-2.357,-5.717 -8.407,-8.742 -14.463,-7.401c-3.354,1.012 -6.724,2.019 -10.417,2.696c-4.037,-4.705 -8.412,-9.419 -13.454,-13.456c1.012,-3.354 1.685,-7.058 2.689,-10.417c1.351,-5.716 -1.678,-12.105 -7.06,-14.468l-16.479,-6.723c-5.383,-2.009 -12.101,0 -15.126,5.048c-1.684,3.025 -3.701,6.389 -5.38,9.415c-6.392,-0.673 -12.776,-0.673 -19.166,0c-2.028,-3.025 -3.7,-6.389 -5.719,-9.415c-3.025,-5.048 -9.417,-7.058 -15.133,-5.048l-16.138,6.723c-5.714,2.362 -8.739,8.751 -7.394,14.468c1.007,3.359 2.017,7.063 3.023,10.417c-5.046,4.037 -9.751,8.751 -13.452,13.456c-3.701,-0.678 -7.394,-1.685 -10.76,-2.696c-5.717,-1.341 -12.108,1.685 -14.122,7.401l-6.724,16.138c-2.35,5.722 -0.334,12.106 4.708,15.132c3.359,2.022 6.389,3.702 9.41,5.716c-0.668,6.39 -0.668,12.778 0,18.829c-3.021,2.023 -6.05,3.698 -9.41,5.722c-5.042,3.025 -7.057,9.753 -4.708,15.131l6.724,16.134c2.014,5.721 8.405,8.746 14.122,7.4c3.366,-1.007 7.06,-1.68 10.424,-2.687c4.037,5.044 8.742,9.41 13.788,13.452c-1.007,3.359 -2.017,7.057 -3.023,10.421c-1.345,6.056 1.68,12.106 7.394,14.458l16.138,6.724c1.687,0.673 3.03,0.673 4.707,0.673c4.374,0 8.413,-2.019 10.426,-5.717c2.019,-3.025 3.691,-6.394 5.719,-9.414c6.39,0.678 12.774,0.678 19.166,0c1.68,3.021 3.696,6.389 5.38,9.414c3.025,5.044 9.744,7.392 15.126,5.044l16.479,-6.724c5.382,-2.352 8.411,-8.402 7.06,-14.458c-0.671,-3.364 -1.678,-7.062 -2.689,-10.421c5.042,-4.042 9.417,-8.408 13.454,-13.452c3.359,1.007 7.063,1.68 10.417,2.687c6.056,1.346 12.105,-1.68 14.463,-7.4l6.729,-16.134c2.348,-5.379 0,-12.106 -5.049,-15.131zm-49.761,-32.281l0,0c-9.417,-22.532 -35.645,-33.627 -58.506,-24.212c-22.532,9.419 -33.294,35.64 -23.877,58.511c4.368,11.09 13.115,19.502 23.877,24.202c5.705,2.362 11.426,3.368 17.143,3.368c5.719,0 11.769,-1.006 17.152,-3.368c22.867,-9.41 33.62,-35.636 24.211,-58.501z"/>
  <path stroke="null" clip-rule="evenodd" fill="#ffffff" fill-rule="evenodd" id="path10" d="m295.879398,95.443958c-12.888339,0 -23.674824,10.651595 -23.674824,23.378954c0,13.020377 10.786485,23.374554 23.674824,23.374554c13.185165,0 23.681955,-10.354178 23.681955,-23.374554c0,-12.727359 -10.496789,-23.378954 -23.681955,-23.378954zm58.441872,8.585512c-2.09294,-0.293898 -3.891727,-0.592195 -5.989124,-0.592195c-1.195329,-3.552292 -2.700855,-6.806286 -4.193902,-10.06028c1.195329,-1.776586 2.39868,-3.258394 3.594009,-5.02618c2.696398,-3.552292 2.395115,-8.586391 -0.902068,-11.841266l-8.094543,-7.990676c-2.993225,-3.253994 -8.386913,-3.552292 -11.985379,-0.886093c-1.497504,1.179991 -3.291834,2.364381 -5.09597,3.850589c-2.994116,-1.784505 -6.592583,-3.258394 -9.893331,-4.144487c-0.297718,-2.074003 -0.595436,-4.143607 -0.897611,-6.214091c-0.599893,-4.437505 -4.793795,-7.687979 -9.289872,-7.687979l-11.385487,0c-4.496077,0 -8.396718,3.249595 -8.992154,7.687979c-0.302175,2.070484 -0.599893,4.140087 -0.902068,6.214091c-3.597575,0.886093 -6.889409,2.359982 -10.191049,4.144487c-1.497504,-1.486208 -3.300748,-2.670598 -5.09597,-3.850589c-3.597575,-2.666199 -8.693545,-2.367901 -11.989836,0.886093l-8.094543,7.990676c-2.994116,3.253994 -3.589553,8.288094 -0.902068,11.841266c1.207808,1.767786 2.705312,3.249595 3.905098,5.02618c-1.803244,3.253994 -3.300748,6.507988 -4.202816,10.06028c-2.09294,0 -4.184989,0.298297 -6.290408,0.592195c-4.498751,0.886093 -7.790586,4.736682 -7.790586,9.166268l0,11.243791c0,4.442784 3.291834,8.284574 7.790586,9.174187c2.104528,0.293898 4.197468,0.596595 6.290408,0.596595c0.902068,3.547892 2.39868,6.798366 4.202816,10.05588c-1.199786,1.772186 -2.696398,3.258394 -3.905098,5.03058c-2.688376,3.552292 -2.09294,8.574072 0.902068,11.835986l8.094543,7.986277c3.296291,3.253994 8.392261,3.552292 11.989836,0.889613c1.795222,-1.18791 3.598466,-2.372301 5.09597,-3.849709c3.300748,1.780106 6.592583,3.258394 10.191049,4.143607c0.302175,2.070484 0.599893,4.144487 0.902068,6.21849c0.595436,4.433985 4.496077,7.687979 8.992154,7.687979l11.385487,0c4.496077,0 8.689979,-3.253994 9.289872,-7.687979c0.302175,-2.074003 0.599893,-4.148007 0.897611,-6.21849c3.300748,-0.886093 6.898323,-2.363501 9.893331,-4.143607c1.803244,1.478288 3.598466,2.661799 5.09597,3.849709c3.598466,2.661799 8.992154,2.364381 11.985379,-0.889613l8.094543,-7.986277c3.296291,-3.262794 3.598466,-8.284574 0.902068,-11.835986c-1.195329,-1.772186 -2.39868,-3.258394 -3.594009,-5.03058c1.493047,-3.258394 2.998573,-6.507988 4.193902,-10.05588c2.097397,0 3.896184,-0.302697 5.989124,-0.596595c4.5041,-0.889613 7.795934,-4.731403 7.795934,-9.174187l0,-11.243791c0,-4.429585 -3.292726,-8.280175 -7.795934,-9.166268z"/>
  <path clip-rule="evenodd" fill="#ffffff" fill-rule="evenodd" id="svg_1" d="m298.853367,327.197269c-14.459,0 -26.56,12.105 -26.56,26.569c0,14.797 12.101,26.564 26.56,26.564c14.792,0 26.568,-11.767 26.568,-26.564c0,-14.464 -11.776,-26.569 -26.568,-26.569zm65.564,9.757c-2.348,-0.334 -4.366,-0.673 -6.719,-0.673c-1.341,-4.037 -3.03,-7.735 -4.705,-11.433c1.341,-2.019 2.691,-3.703 4.032,-5.712c3.025,-4.037 2.687,-9.758 -1.012,-13.457l-9.081,-9.081c-3.358,-3.698 -9.409,-4.037 -13.446,-1.007c-1.68,1.341 -3.693,2.687 -5.717,4.376c-3.359,-2.028 -7.396,-3.703 -11.099,-4.71c-0.334,-2.357 -0.668,-4.709 -1.007,-7.062c-0.673,-5.043 -5.378,-8.737 -10.422,-8.737l-12.773,0c-5.044,0 -9.42,3.693 -10.088,8.737c-0.339,2.353 -0.673,4.705 -1.012,7.062c-4.036,1.007 -7.729,2.682 -11.433,4.71c-1.68,-1.689 -3.703,-3.035 -5.717,-4.376c-4.036,-3.03 -9.753,-2.691 -13.451,1.007l-9.081,9.081c-3.359,3.698 -4.027,9.419 -1.012,13.457c1.355,2.009 3.035,3.693 4.381,5.712c-2.023,3.698 -3.703,7.396 -4.715,11.433c-2.348,0 -4.695,0.339 -7.057,0.673c-5.047,1.007 -8.74,5.383 -8.74,10.417l0,12.778c0,5.049 3.693,9.415 8.74,10.426c2.361,0.334 4.709,0.678 7.057,0.678c1.012,4.032 2.691,7.726 4.715,11.428c-1.346,2.014 -3.025,3.703 -4.381,5.717c-3.016,4.037 -2.348,9.744 1.012,13.451l9.081,9.076c3.698,3.698 9.415,4.037 13.451,1.011c2.014,-1.35 4.037,-2.696 5.717,-4.375c3.703,2.023 7.396,3.703 11.433,4.709c0.339,2.353 0.673,4.71 1.012,7.067c0.668,5.039 5.044,8.737 10.088,8.737l12.773,0c5.044,0 9.749,-3.698 10.422,-8.737c0.339,-2.357 0.673,-4.714 1.007,-7.067c3.703,-1.007 7.739,-2.686 11.099,-4.709c2.023,1.68 4.037,3.025 5.717,4.375c4.037,3.025 10.088,2.687 13.446,-1.011l9.081,-9.076c3.698,-3.708 4.037,-9.415 1.012,-13.451c-1.341,-2.014 -2.691,-3.703 -4.032,-5.717c1.675,-3.703 3.364,-7.396 4.705,-11.428c2.353,0 4.371,-0.344 6.719,-0.678c5.053,-1.011 8.746,-5.377 8.746,-10.426l0,-12.778c0,-5.034 -3.694,-9.41 -8.746,-10.417z"/>
 </g>
</svg>