<svg width="1024" height="1024" xmlns="http://www.w3.org/2000/svg">

 <g>
  <title>background</title>
  <rect fill="none" id="canvas_background" height="402" width="582" y="-1" x="-1"/>
 </g>
 <g>
  <title>Layer 1</title>
  <path fill="#ffffff" id="svg_1" d="m716.737,124.056c-71.926,41.686 -148.041,96.13 -218.436,166.555c-45,45.031 -81.213,88.78 -110.39,129.778l-178.373,32.961l-209.491,209.647l186.818,5.815l131.562,-131.562c-46.439,96.224 -50.536,160.019 -50.536,160.019l58.854,58.792c0,0 65.827,-6.255 162.737,-53.163l-134.375,134.221l5.88,186.881l209.585,-209.521l33.086,-179.252c41.403,-29.02 85.185,-65.046 129.716,-109.545c70.425,-70.455 124.837,-146.541 166.555,-218.466c-45.97,-9.351 -88.125,-28.488 -121.397,-61.668c-33.275,-33.367 -52.538,-75.523 -61.795,-121.492zm69.424,-37.213c5.004,45 19.952,81.274 44.78,105.98c24.769,24.985 60.98,39.902 106.138,44.844c65.984,-133.344 86.874,-237.667 86.874,-237.667s-104.323,20.858 -237.792,86.843z"/>
 </g>
</svg>